<svg width="1600" height="900" viewBox="0 0 1600 900" fill="none" xmlns="http://www.w3.org/2000/svg">
  <defs>
    <linearGradient id="shell" x1="0" y1="0" x2="1600" y2="900" gradientUnits="userSpaceOnUse">
      <stop stop-color="#081326"/>
      <stop offset="1" stop-color="#10182A"/>
    </linearGradient>
    <linearGradient id="blueCard" x1="330" y1="218" x2="660" y2="370" gradientUnits="userSpaceOnUse">
      <stop stop-color="#2563EB"/>
      <stop offset="1" stop-color="#1D4ED8"/>
    </linearGradient>
    <linearGradient id="mintCard" x1="1025" y1="218" x2="1355" y2="370" gradientUnits="userSpaceOnUse">
      <stop stop-color="#123F46"/>
      <stop offset="1" stop-color="#0F766E"/>
    </linearGradient>
    <filter id="shadow" x="-30%" y="-30%" width="160%" height="180%">
      <feDropShadow dx="0" dy="16" stdDeviation="22" flood-color="#000000" flood-opacity="0.28"/>
    </filter>
    <clipPath id="frame">
      <rect width="1600" height="900" rx="38"/>
    </clipPath>
  </defs>

  <g clip-path="url(#frame)">
    <rect width="1600" height="900" fill="url(#shell)"/>
    <rect width="260" height="900" fill="#07101F"/>
    <rect x="260" width="1340" height="86" fill="#0D1728"/>
    <path d="M260 86H1600" stroke="#263249"/>
    <path d="M260 0V900" stroke="#263249"/>

    <rect x="32" y="27" width="42" height="42" rx="11" fill="#2563EB"/>
    <path d="M43 57V39H48L58 51V39H63V57H58L48 45V57H43Z" fill="white"/>
    <text x="88" y="49" fill="white" font-family="Arial, Helvetica, sans-serif" font-size="20" font-weight="700">AVIVX</text>
    <text x="88" y="66" fill="#60A5FA" font-family="Arial, Helvetica, sans-serif" font-size="11" font-weight="700" letter-spacing="2">PRO</text>

    <g font-family="Arial, Helvetica, sans-serif">
      <rect x="20" y="105" width="220" height="50" rx="12" fill="#172A4C"/>
      <circle cx="47" cy="130" r="7" fill="#60A5FA"/>
      <text x="67" y="136" fill="white" font-size="15" font-weight="700">Dashboard</text>

      <text x="34" y="196" fill="#64748B" font-size="10" font-weight="700" letter-spacing="2">GESTIONE</text>
      <g fill="#A8B3C8" font-size="14">
        <text x="67" y="236">Agenda</text>
        <text x="67" y="282">Clienti</text>
        <text x="67" y="328">Promemoria</text>
        <text x="67" y="374">Marketing</text>
      </g>
      <g fill="#52617A">
        <circle cx="43" cy="230" r="8"/>
        <circle cx="43" cy="276" r="8"/>
        <circle cx="43" cy="322" r="8"/>
        <circle cx="43" cy="368" r="8"/>
      </g>

      <text x="34" y="438" fill="#64748B" font-size="10" font-weight="700" letter-spacing="2">AMMINISTRAZIONE</text>
      <g fill="#A8B3C8" font-size="14">
        <text x="67" y="478">Cassa e pagamenti</text>
        <text x="67" y="524">Servizi</text>
        <text x="67" y="570">Dipendenti</text>
        <text x="67" y="616">Magazzino</text>
        <text x="67" y="662">Impostazioni</text>
      </g>
      <g fill="#52617A">
        <circle cx="43" cy="472" r="8"/>
        <circle cx="43" cy="518" r="8"/>
        <circle cx="43" cy="564" r="8"/>
        <circle cx="43" cy="610" r="8"/>
        <circle cx="43" cy="656" r="8"/>
      </g>

      <text x="310" y="52" fill="white" font-size="23" font-weight="700">Dashboard</text>
      <text x="1428" y="51" fill="#94A3B8" font-size="13">20 giugno 2026</text>
      <circle cx="1540" cy="43" r="18" fill="#172236"/>
      <circle cx="1540" cy="43" r="5" fill="#60A5FA"/>

      <rect x="310" y="116" width="1240" height="70" rx="16" fill="#111D31" filter="url(#shadow)"/>
      <circle cx="345" cy="151" r="17" fill="#2563EB"/>
      <path d="M338 151L343 156L353 145" stroke="white" stroke-width="3" stroke-linecap="round" stroke-linejoin="round"/>
      <text x="375" y="157" fill="white" font-size="16" font-weight="700">Salone Demo Treviso</text>
      <text x="1455" y="157" fill="#7F8CA3" font-size="13">Giugno 2026</text>

      <g filter="url(#shadow)">
        <rect x="310" y="218" width="285" height="152" rx="20" fill="url(#blueCard)"/>
        <rect x="615" y="218" width="285" height="152" rx="20" fill="#172236"/>
        <rect x="920" y="218" width="285" height="152" rx="20" fill="url(#mintCard)"/>
        <rect x="1225" y="218" width="325" height="152" rx="20" fill="#172236"/>
      </g>

      <g fill="#C7D2FE" font-size="13" font-weight="700">
        <text x="338" y="252">INCASSO DEL MESE</text>
        <text x="643" y="252" fill="#94A3B8">GUADAGNO POTENZIALE</text>
        <text x="948" y="252" fill="#99F6E4">TOTALE PREVISTO</text>
        <text x="1253" y="252" fill="#94A3B8">MEDIA GIORNALIERA</text>
      </g>
      <g fill="white" font-size="34" font-weight="700">
        <text x="338" y="306">€ 11.000</text>
        <text x="643" y="306">€ 2.480</text>
        <text x="948" y="306">€ 13.480</text>
        <text x="1253" y="306">€ 526,62</text>
      </g>
      <g font-size="12">
        <text x="338" y="340" fill="#BFDBFE">+30,7% rispetto al mese precedente</text>
        <text x="643" y="340" fill="#64748B">appuntamenti e servizi prenotati</text>
        <text x="948" y="340" fill="#CCFBF1">incasso consolidato + potenziale</text>
        <text x="1253" y="340" fill="#64748B">valore medio degli ultimi 30 giorni</text>
      </g>

      <rect x="310" y="402" width="380" height="125" rx="20" fill="#111D31"/>
      <rect x="710" y="402" width="380" height="125" rx="20" fill="#111D31"/>
      <rect x="1110" y="402" width="440" height="125" rx="20" fill="#111D31"/>
      <g fill="#94A3B8" font-size="13" font-weight="700">
        <text x="338" y="438">APPUNTAMENTI DEL MESE</text>
        <text x="738" y="438">NUOVI CLIENTI</text>
        <text x="1138" y="438">TASSO DI RIEMPIMENTO</text>
      </g>
      <g fill="white" font-size="31" font-weight="700">
        <text x="338" y="484">225</text>
        <text x="738" y="484">20</text>
        <text x="1138" y="484">87%</text>
      </g>
      <rect x="1230" y="463" width="275" height="10" rx="5" fill="#263249"/>
      <rect x="1230" y="463" width="238" height="10" rx="5" fill="#3B82F6"/>

      <rect x="310" y="557" width="1240" height="293" rx="22" fill="#111D31"/>
      <text x="340" y="599" fill="white" font-size="17" font-weight="700">Andamento incassi giornalieri</text>
      <text x="340" y="623" fill="#64748B" font-size="12">Performance economica del mese corrente</text>

      <g stroke="#263249">
        <path d="M340 670H1518"/>
        <path d="M340 730H1518"/>
        <path d="M340 790H1518"/>
      </g>
      <g fill="#3B82F6">
        <rect x="372" y="731" width="34" height="59" rx="6"/>
        <rect x="420" y="688" width="34" height="102" rx="6"/>
        <rect x="468" y="652" width="34" height="138" rx="6"/>
        <rect x="516" y="704" width="34" height="86" rx="6"/>
        <rect x="600" y="676" width="34" height="114" rx="6"/>
        <rect x="648" y="641" width="34" height="149" rx="6"/>
        <rect x="696" y="665" width="34" height="125" rx="6"/>
        <rect x="744" y="716" width="34" height="74" rx="6"/>
        <rect x="828" y="659" width="34" height="131" rx="6"/>
        <rect x="876" y="695" width="34" height="95" rx="6"/>
        <rect x="924" y="632" width="34" height="158" rx="6"/>
        <rect x="972" y="681" width="34" height="109" rx="6"/>
        <rect x="1056" y="704" width="34" height="86" rx="6"/>
        <rect x="1104" y="644" width="34" height="146" rx="6"/>
        <rect x="1152" y="670" width="34" height="120" rx="6"/>
        <rect x="1200" y="619" width="34" height="171" rx="6"/>
        <rect x="1284" y="657" width="34" height="133" rx="6"/>
        <rect x="1332" y="701" width="34" height="89" rx="6"/>
        <rect x="1380" y="646" width="34" height="144" rx="6"/>
        <rect x="1428" y="678" width="34" height="112" rx="6"/>
      </g>
    </g>
  </g>
</svg>
