<svg xmlns="http://www.w3.org/2000/svg" xmlns:xlink="http://www.w3.org/1999/xlink" width="2000" zoomAndPan="magnify" viewBox="0 0 1500 749.999995" height="1000" preserveAspectRatio="xMidYMid meet" version="1.0"><defs><g/></defs><g fill="#ffffff" fill-opacity="1"><g transform="translate(95.307612, 436.499999)"><g><path d="M 18 0 L 18 -166.203125 C 18 -178.003906 21.046875 -187.253906 27.140625 -193.953125 C 33.242188 -200.648438 41.5 -204 51.90625 -204 C 60.695312 -204 68.894531 -200.5 76.5 -193.5 L 196.796875 -83.703125 L 196.796875 -200.703125 L 256.203125 -200.703125 L 256.203125 -34.203125 C 256.203125 -22.597656 253.203125 -13.394531 247.203125 -6.59375 C 241.203125 0.195312 232.898438 3.59375 222.296875 3.59375 C 213.703125 3.59375 205.40625 -0.101562 197.40625 -7.5 L 77.703125 -116.703125 L 77.703125 0 Z M 18 0 "/></g></g></g><g fill="#ffffff" fill-opacity="1"><g transform="translate(369.207126, 436.499999)"><g><path d="M 81 -148.5 L 81 -121.5 L 232.5 -121.5 L 193.796875 -72 L 81 -72 L 81 0 L 18.90625 0 L 18.90625 -200.703125 L 243.90625 -200.703125 L 204 -148.5 Z M 81 -148.5 "/></g></g></g><g fill="#ffffff" fill-opacity="1"><g transform="translate(624.640585, 376.406135)"><g><path d="M 124.59375 0 L 103.203125 0 L 92.59375 -38.796875 L 75.203125 -6.40625 C 73.671875 -3.601562 71.988281 -1.648438 70.15625 -0.546875 C 68.320312 0.542969 65.867188 1.09375 62.796875 1.09375 C 59.734375 1.09375 57.285156 0.542969 55.453125 -0.546875 C 53.617188 -1.648438 51.9375 -3.601562 50.40625 -6.40625 L 33.40625 -38.796875 L 22.5 0 L 1.5 0 L 18.90625 -58.703125 C 19.769531 -61.628906 21.234375 -63.910156 23.296875 -65.546875 C 25.367188 -67.179688 27.835938 -68 30.703125 -68 C 35.503906 -68 39.238281 -65.664062 41.90625 -61 L 63.203125 -21.296875 L 84.59375 -61 C 87.132812 -65.664062 90.867188 -68 95.796875 -68 C 98.660156 -68 101.144531 -67.164062 103.25 -65.5 C 105.351562 -63.832031 106.800781 -61.566406 107.59375 -58.703125 Z M 124.59375 0 "/></g></g></g><g fill="#ffffff" fill-opacity="1"><g transform="translate(750.43573, 376.406135)"><g><path d="M 27 -49.5 L 27 -40.90625 L 79.90625 -40.90625 L 67.90625 -26.09375 L 27 -26.09375 L 27 -17.40625 L 83.90625 -17.40625 L 70.703125 0 L 6.296875 0 L 6.296875 -66.90625 L 83.796875 -66.90625 L 70.40625 -49.5 Z M 27 -49.5 "/></g></g></g><g fill="#ffffff" fill-opacity="1"><g transform="translate(835.132465, 376.406135)"><g><path d="M 51.09375 0 L 6.296875 0 L 6.296875 -41.296875 L 27 -41.296875 L 27 -17.40625 L 51.09375 -17.40625 C 57.5 -17.40625 62.367188 -18.835938 65.703125 -21.703125 C 69.035156 -24.566406 70.703125 -28.695312 70.703125 -34.09375 C 70.703125 -38.832031 68.953125 -42.582031 65.453125 -45.34375 C 61.953125 -48.113281 57.164062 -49.5 51.09375 -49.5 L 6.296875 -49.5 L 19.59375 -66.90625 L 51.09375 -66.90625 C 58.96875 -66.90625 65.9375 -65.503906 72 -62.703125 C 78.0625 -59.898438 82.8125 -56.03125 86.25 -51.09375 C 89.6875 -46.164062 91.40625 -40.5 91.40625 -34.09375 C 91.40625 -29.226562 90.40625 -24.726562 88.40625 -20.59375 C 86.40625 -16.46875 83.585938 -12.851562 79.953125 -9.75 C 76.316406 -6.644531 72.046875 -4.242188 67.140625 -2.546875 C 62.242188 -0.847656 56.894531 0 51.09375 0 Z M 51.09375 0 "/></g></g></g><g fill="#ffffff" fill-opacity="1"><g transform="translate(930.628783, 376.406135)"><g><path d="M 27.296875 0 L 6.59375 0 L 6.59375 -66.90625 L 27.296875 -66.90625 Z M 27.296875 0 "/></g></g></g><g fill="#ffffff" fill-opacity="1"><g transform="translate(964.427465, 376.406135)"><g><path d="M 112.40625 0 L 34.703125 0 L 47.09375 -17.40625 L 75.90625 -17.40625 L 57 -44.703125 L 25.296875 0 L 1.09375 0 L 44 -60.5 C 45.46875 -62.5 47.25 -64.25 49.34375 -65.75 C 51.445312 -67.25 54.097656 -68 57.296875 -68 C 60.429688 -68 63.046875 -67.28125 65.140625 -65.84375 C 67.242188 -64.414062 69.03125 -62.632812 70.5 -60.5 Z M 112.40625 0 "/></g></g></g><g fill="#ffffff" fill-opacity="1"><g transform="translate(1077.723098, 376.406135)"><g/></g></g><g fill="#ffffff" fill-opacity="1"><g transform="translate(1116.021619, 376.406135)"><g><path d="M 65.5 0 L 6.296875 0 L 6.296875 -66.90625 L 27 -66.90625 L 27 -17.40625 L 78.796875 -17.40625 Z M 65.5 0 "/></g></g></g><g fill="#ffffff" fill-opacity="1"><g transform="translate(1188.018732, 376.406135)"><g><path d="M 112.40625 0 L 34.703125 0 L 47.09375 -17.40625 L 75.90625 -17.40625 L 57 -44.703125 L 25.296875 0 L 1.09375 0 L 44 -60.5 C 45.46875 -62.5 47.25 -64.25 49.34375 -65.75 C 51.445312 -67.25 54.097656 -68 57.296875 -68 C 60.429688 -68 63.046875 -67.28125 65.140625 -65.84375 C 67.242188 -64.414062 69.03125 -62.632812 70.5 -60.5 Z M 112.40625 0 "/></g></g></g><g fill="#ffffff" fill-opacity="1"><g transform="translate(1301.314411, 376.406135)"><g><path d="M 65 0 L 6.296875 0 L 6.296875 -40.90625 L 65.703125 -40.90625 C 69.429688 -40.90625 71.296875 -42.367188 71.296875 -45.296875 C 71.296875 -48.097656 69.460938 -49.5 65.796875 -49.5 L 6.296875 -49.5 L 20.5 -66.90625 L 64.59375 -66.90625 C 72.925781 -66.90625 79.394531 -65.285156 84 -62.046875 C 88.601562 -58.816406 90.90625 -54.300781 90.90625 -48.5 C 90.90625 -45.4375 90.320312 -42.65625 89.15625 -40.15625 C 87.988281 -37.65625 86.335938 -35.632812 84.203125 -34.09375 C 86.734375 -32.5625 88.710938 -30.492188 90.140625 -27.890625 C 91.578125 -25.296875 92.296875 -22.398438 92.296875 -19.203125 C 92.296875 -6.398438 83.195312 0 65 0 Z M 65.703125 -26.203125 L 27 -26.203125 L 27 -17.40625 L 65.796875 -17.40625 C 69.660156 -17.40625 71.59375 -18.835938 71.59375 -21.703125 C 71.59375 -24.703125 69.628906 -26.203125 65.703125 -26.203125 Z M 65.703125 -26.203125 "/></g></g></g></svg>